<mxfile host="app.diagrams.net" agent="Mozilla/5.0 (Windows NT 10.0; Win64; x64) AppleWebKit/537.36 (KHTML, like Gecko) Chrome/136.0.0.0 Safari/537.36" version="28.0.4">
  <diagram name="Page-1" id="bd83a815-5ea8-2e97-e5ec-87c9f400f2fa">
    <mxGraphModel dx="1554" dy="1038" grid="1" gridSize="10" guides="1" tooltips="1" connect="1" arrows="1" fold="1" page="1" pageScale="1.5" pageWidth="1169" pageHeight="826" background="none" math="0" shadow="0">
      <root>
        <mxCell id="0" style=";html=1;" />
        <mxCell id="1" style=";html=1;" parent="0" />
        <mxCell id="1516e18e63f93b96-1" value="&lt;table border=&quot;1&quot; width=&quot;100%&quot; cellpadding=&quot;3&quot; style=&quot;width: 100% ; height: 100% ; border-collapse: collapse&quot;&gt;&lt;tbody&gt;&lt;tr style=&quot;background-color: rgb(167, 201, 66); color: rgb(255, 255, 255); border: 1px solid rgb(152, 191, 33);&quot;&gt;&lt;th&gt;Tasks&lt;/th&gt;&lt;th&gt;Https 메서드&lt;/th&gt;&lt;th&gt;API 경로&lt;/th&gt;&lt;th&gt;Request&lt;/th&gt;&lt;th&gt;Responds&lt;/th&gt;&lt;th&gt;&lt;br&gt;&lt;/th&gt;&lt;/tr&gt;&lt;tr style=&quot;border: 1px solid rgb(152, 191, 33);&quot;&gt;&lt;td style=&quot;background-color: rgb(167, 201, 66); color: rgb(255, 255, 255); border: 1px solid rgb(152, 191, 33);&quot;&gt;세션 접속&lt;/td&gt;&lt;td&gt;GET&lt;/td&gt;&lt;td&gt;/home&lt;/td&gt;&lt;td&gt;UserEnterRequest&lt;/td&gt;&lt;td&gt;UserEnterResponds&lt;/td&gt;&lt;td&gt;&lt;br&gt;&lt;/td&gt;&lt;/tr&gt;&lt;tr style=&quot;background-color: rgb(234, 242, 211); border: 1px solid rgb(152, 191, 33);&quot;&gt;&lt;td style=&quot;background-color: rgb(167, 201, 66); color: rgb(255, 255, 255); border: 1px solid rgb(152, 191, 33);&quot;&gt;비디오 업로드&lt;/td&gt;&lt;td&gt;POST&lt;/td&gt;&lt;td&gt;/home/video-upload&lt;/td&gt;&lt;td&gt;UserVideoUploadRequest&lt;/td&gt;&lt;td&gt;UserVideoUploadResponds&lt;/td&gt;&lt;td&gt;&lt;br&gt;&lt;/td&gt;&lt;/tr&gt;&lt;tr style=&quot;border: 1px solid rgb(152, 191, 33);&quot;&gt;&lt;td style=&quot;background-color: rgb(167, 201, 66); color: rgb(255, 255, 255); border: 1px solid rgb(152, 191, 33);&quot;&gt;AI 번역 요청&lt;/td&gt;&lt;td&gt;GET&lt;/td&gt;&lt;td&gt;/home/video-*number&lt;/td&gt;&lt;td&gt;UserVideoTranslatioinRunRequest&lt;/td&gt;&lt;td&gt;UserVideoTranslatioinRunResponds&lt;/td&gt;&lt;td&gt;&lt;br&gt;&lt;/td&gt;&lt;/tr&gt;&lt;tr style=&quot;background-color: rgb(234, 242, 211); border: 1px solid rgb(152, 191, 33);&quot;&gt;&lt;td style=&quot;background-color: rgb(167, 201, 66); color: rgb(255, 255, 255); border: 1px solid rgb(152, 191, 33);&quot;&gt;번역 결과&lt;/td&gt;&lt;td&gt;GET&lt;/td&gt;&lt;td&gt;/home/video-*number-result&lt;/td&gt;&lt;td&gt;UserVideoResultRequest&lt;/td&gt;&lt;td&gt;UserVideoResultResponds&lt;/td&gt;&lt;td&gt;&lt;br&gt;&lt;/td&gt;&lt;/tr&gt;&lt;/tbody&gt;&lt;/table&gt;" style="text;html=1;strokeColor=#c0c0c0;fillColor=#ffffff;overflow=fill;rounded=0;shadow=1;fontSize=14;fontColor=#000000;" parent="1" vertex="1">
          <mxGeometry x="145" y="190" width="1095" height="660" as="geometry" />
        </mxCell>
        <mxCell id="1516e18e63f93b96-3" value="API 표" style="text;strokeColor=none;fillColor=none;html=1;fontSize=24;fontStyle=1;verticalAlign=middle;align=center;rounded=0;shadow=1;" parent="1" vertex="1">
          <mxGeometry x="300" y="70" width="780" height="40" as="geometry" />
        </mxCell>
      </root>
    </mxGraphModel>
  </diagram>
</mxfile>
